<svg xmlns="http://www.w3.org/2000/svg" width="13.104" height="16" viewBox="0 0 13.104 16"><g transform="translate(-54.995 -333.111)"><path d="M557.635,412.548c-1.512-.608-2.045-1.136-2.045-2.028a1.346,1.346,0,0,1,.011-.238,1.185,1.185,0,0,1,.13.1,3.053,3.053,0,0,0,1.6.489,6.686,6.686,0,0,1,1.164.244,2.221,2.221,0,0,1,1.629,1.772,2.9,2.9,0,0,1-.048.949,1.827,1.827,0,0,1-.246.551c-.011,0-.022-.04-.025-.1a1.226,1.226,0,0,0-.445-.858,6.1,6.1,0,0,0-1.724-.878" transform="translate(-492.327 -69.428)" fill-rule="evenodd"/><path d="M633.522,539.561a1.748,1.748,0,0,1-.138-1.237c.012-.04.031-.075.043-.075a.481.481,0,0,1,.105.057c.092.063.277.168.771.438a3.83,3.83,0,0,1,1.209.895,1.956,1.956,0,0,1,.4.92,3.157,3.157,0,0,1-.037.9,2.251,2.251,0,0,1-1.1,1.461,1.647,1.647,0,0,1-.16.08.539.539,0,0,1,.064-.166,1.491,1.491,0,0,0,.065-1.182,5.012,5.012,0,0,0-.611-1.1,7.376,7.376,0,0,1-.611-1" transform="translate(-568.584 -194.957)" fill-rule="evenodd"/><path d="M336.869,681.174a4.093,4.093,0,0,1,1.894-.913,2.956,2.956,0,0,1,.984.038,1.685,1.685,0,0,1,.96.615,2.211,2.211,0,0,1,.346,1.033c.033.208.068.416.079.464a1.028,1.028,0,0,0,.332.6,1.149,1.149,0,0,0,1.049.028.522.522,0,0,1,.131-.042,1.2,1.2,0,0,1-.331.222,1.12,1.12,0,0,1-.549.134,1.1,1.1,0,0,1-.93-.57,4.509,4.509,0,0,1-.251-.5c-.27-.615-.4-.8-.715-1.007a.923.923,0,0,0-.888-.081.576.576,0,0,0-.2.9.77.77,0,0,0,.434.227.463.463,0,0,0,.524-.465.36.36,0,0,0-.25-.37.332.332,0,0,0-.505.247.206.206,0,0,0,.142.2c.063.028.064.031.013.021a.28.28,0,0,1-.1-.5.55.55,0,0,1,.817.173.759.759,0,0,1,.016.519.716.716,0,0,1-.866.412,1.2,1.2,0,0,1-.662-.45,2.048,2.048,0,0,0-1.5-.773l-.147-.022Z" transform="translate(-277.607 -334.241)" fill-rule="evenodd"/><path d="M124.021,79.828a.316.316,0,0,0-.1-.417c-.128-.085-.326-.045-.326.066,0,.034.019.058.061.08.071.036.076.078.02.161s-.052.16.013.21a.222.222,0,0,0,.329-.1M121.682,69c1.774,2.153,4.508,5.5,4.644,5.692.112.155.07.294-.122.4a1.165,1.165,0,0,1-.436.122.56.56,0,0,1-.366-.157c-.072-.068-.363-.5-1.035-1.545-.514-.8-.944-1.459-.956-1.47-.027-.026-.027-.025.9,1.64a14.375,14.375,0,0,1,.781,1.464c0,.1-.027.153-.151.292a1.686,1.686,0,0,0-.366,1.026,3.212,3.212,0,0,1-.868,1.752,3.481,3.481,0,0,0-.483.675,1.246,1.246,0,0,0-.15.609,1.9,1.9,0,0,0,.1.75,2.681,2.681,0,0,0,.363.719,1.67,1.67,0,0,1,.28.559c0,.064.012.064.287,0a2.981,2.981,0,0,0,1.494-.73.691.691,0,0,0,.231-.58.565.565,0,0,0-.053-.317,1.393,1.393,0,0,0-.534-.519,1.208,1.208,0,0,1-.635-.819,1.42,1.42,0,0,1,.234-.912,2.76,2.76,0,0,0,.333-1.2c.026-.321.061-.448.153-.55a.574.574,0,0,1,.421-.174,1.434,1.434,0,0,0,.839-.341.73.73,0,0,0,.262-.555l.009-.179-.1-.115c-.357-.416-5.319-5.866-5.341-5.866,0,0,.113.147.261.327" transform="translate(-66.425 265.678)" fill-rule="evenodd"/><g transform="translate(61.81 333.111) rotate(24)"><path d="M5.4.57a1.483,1.483,0,0,0-.588.123,1.709,1.709,0,0,0-2.749,0A1.479,1.479,0,1,0,1.191,3.5V5.913a.172.172,0,0,0,.085.148,4.7,4.7,0,0,0,2.216.547,4.651,4.651,0,0,0,2.175-.543.171.171,0,0,0,.092-.152V3.487A1.48,1.48,0,0,0,5.4.57Zm.354,2.56V3a.172.172,0,0,0-.343,0V5.807a4.455,4.455,0,0,1-3.881,0V3.528A1.476,1.476,0,0,0,2.276,3.3a.172.172,0,0,0-.184-.289A1.138,1.138,0,1,1,1.89.99a1.7,1.7,0,0,0-.163.725.171.171,0,0,0,.343,0A1.362,1.362,0,0,1,2.275,1h0A1.371,1.371,0,1,1,4.311,2.777a.172.172,0,0,0,.217.266A1.708,1.708,0,0,0,4.995.99a1.137,1.137,0,1,1,.764,2.14Z" transform="translate(0 0)"/><path d="M1.654.257A2.266,2.266,0,0,1,.259.024.171.171,0,0,0,.083.319a2.563,2.563,0,0,0,1.224.31A2.436,2.436,0,0,0,1.711.6.171.171,0,1,0,1.654.257Z" transform="translate(1.859 5.236)"/></g><path d="M397.089,444.568a.268.268,0,0,0-.115-.405c-.328-.2-.822-.034-.822.275,0,.154.257.323.495.323a.638.638,0,0,0,.442-.193m-.658-.552a.685.685,0,0,0-.414.452.646.646,0,0,0,.035.408c.082.108.16.137.372.135.416,0,.776-.181.818-.4a.593.593,0,0,0-.342-.547.819.819,0,0,0-.469-.044" transform="translate(-335.776 -102.503)" fill-rule="evenodd"/><path d="M412.3,449.008a.087.087,0,0,1,.075,0h0l.215.114a.035.035,0,0,1,.021.027h0v.574a.036.036,0,0,1-.021.03h0l-.215.114a.087.087,0,0,1-.075,0h0l-.215-.114a.036.036,0,0,1-.021-.03v-.574a.035.035,0,0,1,.021-.027h0Zm.277.461-.2.107a.087.087,0,0,1-.075,0h0l-.2-.107v.252l.2.106a.1.1,0,0,0,.034.013h0a.086.086,0,0,0,.036-.012h0l.2-.108Zm-.548.241a.118.118,0,0,0,.007.047.066.066,0,0,0,.022.023h0l.009.005,0,0,.012.007-.018.029-.014-.009h0l-.01-.006a.1.1,0,0,1-.045-.1h.034Zm.292-.395,0,0h0l-.216.114h0l.216.114h0Zm.034,0v.232h0l.215-.114h0l-.215-.114Zm.223-.126-.192.1.192.1Zm-.479,0v.2l.193-.1Zm.261-.152a.054.054,0,0,0-.042,0h0l-.216.114h0l.216.114a.054.054,0,0,0,.042,0h0l.215-.114h0Zm.25.013.014.008h0l.011.007a.1.1,0,0,1,.045.1h-.034a.1.1,0,0,0-.008-.046.054.054,0,0,0-.022-.023h0l-.009-.006,0,0-.012-.007Z" transform="translate(-351.471 -107.408)"/></g></svg>